<svg width="33" height="50" fill="none" xmlns="http://www.w3.org/2000/svg"><path fill-rule="evenodd" clip-rule="evenodd" d="M29.917 2.85c-.19.95-.908 2.983-1.744 4.275 1.636 2.288 1.916 5.052.545 6.53-1.28 1.381-3.6 1.209-5.63-.256a8.072 8.072 0 0 1-1.225-1.087l-.028-.03c-.448.178-.908.335-1.379.47v.073c0 .334-.016.662-.049.981l-.007.067-.002.02a9.093 9.093 0 0 1-.113.736C19.789 17.16 18.278 19 16.49 19c-1.694 0-3.14-1.654-3.709-3.983a9.052 9.052 0 0 1-.226-1.428c-.02-.25-.03-.505-.03-.763v-.074a14.168 14.168 0 0 1-1.018-.331 8.536 8.536 0 0 1-.372.364l-.044.04c-.38.346-.776.643-1.18.89-1.907 1.167-3.975 1.216-5.157-.058-1.3-1.401-1.116-3.956.299-6.167A12.321 12.321 0 0 1 3.066 2.85a3.044 3.044 0 0 1 .207-1.9C3.713 0 4.918 0 5.79 0h21.401c.881 0 2.078 0 2.519.95.357.77.33 1.281.207 1.9Zm-6.204 7.426.02.02c.786.849 1.64 1.287 2.289 1.414.317.063.538.042.665.009.116-.03.151-.068.161-.079.011-.011.038-.042.063-.132.027-.098.054-.276.03-.542-.048-.548-.3-1.314-.862-2.1l-1.184-1.657 1.11-1.714A9.384 9.384 0 0 0 27.19 2.85h-21.4a9.431 9.431 0 0 0 1.376 2.927l1.144 1.64-1.081 1.69c-.48.75-.677 1.45-.705 1.939-.013.237.015.392.041.477a.28.28 0 0 0 .058.117c.01.011.045.047.156.077.122.033.335.055.643-.002.63-.115 1.466-.53 2.247-1.344l1.162-1.212 1.53.564c.274.1.553.191.838.272l1.986.565-.017 2.214v.05c0 1.2.317 2.161.692 2.745.183.286.353.44.465.514.101.067.151.067.165.067.014 0 .064 0 .165-.067.112-.074.282-.228.466-.514.375-.584.691-1.545.691-2.744v-.05l-.017-2.215 1.986-.565c.388-.11.767-.24 1.134-.386l1.598-.638 1.2 1.305ZM1.078 21C.41 21-.098 21.56.016 22.17l5.016 27c.09.48.537.83 1.062.83h20.812c.525 0 .973-.35 1.062-.83l5.016-27c.114-.611-.394-1.17-1.062-1.17H1.078ZM16.5 33.037c-5.933 0-10.892-3.87-12.107-9.037h24.213c-1.214 5.168-6.173 9.037-12.106 9.037ZM7.909 47 5.003 31.355c2.855 2.879 6.949 4.682 11.497 4.682s8.642-1.803 11.497-4.682L25.091 47H7.909Z" fill="#FEA5BB"/></svg>