<svg width="64" height="64" fill="none" xmlns="http://www.w3.org/2000/svg"><path fill-rule="evenodd" clip-rule="evenodd" d="M32 64c17.673 0 32-14.327 32-32C64 14.327 49.673 0 32 0 14.327 0 0 14.327 0 32c0 17.673 14.327 32 32 32Zm15.286-31.683v-2.09c0-2.985-.888-5.768-2.418-8.11-3.36 3.2-7.95 5.172-13.01 5.172-5.062 0-9.652-1.972-13.012-5.173a14.771 14.771 0 0 0-2.417 8.111v2.09h30.857Zm3.214.14v-2.23C50.5 20.161 42.153 12 31.857 12c-10.296 0-18.643 8.16-18.643 18.227v2.678C11.31 33.831 10 35.753 10 37.975c0 2.22 1.31 4.142 3.214 5.068v5.617c0 5.068 3.836 9.261 8.825 9.955v3.431c1.254.393 2.541.713 3.857.954v-3.457h13.551v3.115a32.446 32.446 0 0 0 3.857-1.17v-3.234c4.171-1.283 7.196-5.093 7.196-9.595V43.491c2.577-.572 4.5-2.825 4.5-5.517s-1.923-4.945-4.5-5.516ZM36.14 44.26h3.95v1.752c0 1.067-.884 1.931-1.975 1.931-1.09 0-1.975-.864-1.975-1.93V44.26Zm-3.215 0v1.752c0 2.802 2.324 5.074 5.19 5.074 2.866 0 5.19-2.272 5.19-5.074V44.26h3.98v4.4c0 3.818-3.165 6.913-7.07 6.913H23.5c-3.905 0-7.071-3.095-7.071-6.914v-4.4h16.497Zm-1.068-29.117c4.304 0 8.196 1.723 10.995 4.502-2.799 2.779-6.691 4.502-10.995 4.502-4.304 0-8.196-1.723-10.994-4.502 2.798-2.78 6.69-4.502 10.994-4.502ZM15.786 35.46h33.428c1.42 0 2.572 1.126 2.572 2.514 0 1.389-1.152 2.514-2.572 2.514H15.786c-1.42 0-2.572-1.125-2.572-2.514 0-1.388 1.152-2.514 2.572-2.514Z" fill="#D41443"/></svg>