<svg width="44" height="50" fill="none" xmlns="http://www.w3.org/2000/svg"><path fill-rule="evenodd" clip-rule="evenodd" d="M13.39.275c3.202.668 6.457 2.486 9.38 4.72 2.79-2.281 5.963-3.978 9.054-4.572 3.218-.618 6.372-.041 8.857 2.343 3.136 3.01 4.13 8.033 2.638 13.476l-.016.056c-.031.113-.064.227-.097.34l-.005.015c-.293.992-.67 1.998-1.13 3.01-.954 2.094-2.272 4.213-3.977 6.28-4.23 5.127-8.157 7.575-11.05 8.72V50h-9.319V34.255c-3.09-1.324-7.212-3.81-11.635-8.28-2.093-2.115-3.607-4.358-4.602-6.613l-.033-.075a17.84 17.84 0 0 1-1.051-3.182C-.777 10.901.695 5.95 4.014 2.766 6.758.132 10.053-.42 13.39.276ZM6.165 4.89c1.88-1.804 4.063-2.225 6.584-1.699 2.657.555 5.594 2.168 8.416 4.37l1.678 1.31 1.627-1.368c2.597-2.184 5.418-3.668 7.948-4.154 2.443-.47 4.496-.01 6.113 1.541 2.1 2.016 3.101 5.87 1.86 10.51-.114.424-.246.854-.398 1.29-.25-.195-.379-.451-.379-.693 0-.384-.063-.751-.18-1.096-.586-1.72-2.514-2.895-4.649-2.895-.272 0-.54.019-.804.056-2.214.31-4.024 1.88-4.024 3.935v3.001c0 .464-.51 1.01-1.371 1.01-.862 0-1.371-.546-1.371-1.01v-3c0-2.3-2.267-3.992-4.83-3.992-2.561 0-4.828 1.693-4.828 3.991v3.001c0 .464-.509 1.01-1.37 1.01-.863 0-1.372-.546-1.372-1.01v-3c0-2.3-2.266-3.992-4.828-3.992-2.563 0-4.83 1.693-4.83 3.991 0 .456-.49.992-1.325 1.01-1.7-4.904-.42-9.474 2.333-12.117Zm2.45 11.107c0-.464.51-1.01 1.372-1.01.861 0 1.37.546 1.37 1.01v3.001c0 2.299 2.267 3.992 4.83 3.992 2.561 0 4.828-1.693 4.828-3.992v-3c0-.465.51-1.011 1.37-1.011.863 0 1.372.546 1.372 1.01v3.001c0 2.299 2.266 3.992 4.829 3.992 2.562 0 4.828-1.693 4.828-3.992v-3c0-.465.51-1.011 1.371-1.011.862 0 1.371.546 1.371 1.01 0 1.586 1.095 2.893 2.596 3.542-.779 1.486-1.785 3.009-3.046 4.537-6.654 8.065-12.105 8.567-12.924 8.567-.304 0-2.031-.236-4.731-1.529-2.623-1.256-6.045-3.458-9.754-7.206-1.324-1.339-2.367-2.71-3.162-4.077 1.951-.47 3.48-1.951 3.48-3.834ZM20.789 47.02V35.994h3.193V47.02h-3.193Z" fill="#FEA5BB"/></svg>