<svg width="199" height="50" viewBox="0 0 199 50" fill="none" xmlns="http://www.w3.org/2000/svg">
<path d="M50 25C50 38.8071 38.8071 50 25 50C11.1929 50 0 38.8071 0 25C0 11.1929 11.1929 0 25 0C38.8071 0 50 11.1929 50 25Z" fill="#D41443"/>
<path fill-rule="evenodd" clip-rule="evenodd" d="M37 23.5V25.1626H13V23.5C13 21.1248 13.69 18.9109 14.8806 17.0476C17.4933 19.5939 21.0635 21.1626 25 21.1626C28.9365 21.1626 32.5066 19.5939 35.1194 17.0476C36.31 18.9109 37 21.1248 37 23.5ZM39.5 23.5V25.2741C41.504 25.7288 43 27.521 43 29.6626C43 31.8042 41.504 33.5964 39.5 34.0511V34.5794V38.1627C39.5 41.7436 37.1473 44.7749 33.9033 45.7954V46.8206V48.3681C32.931 48.7388 31.9295 49.0505 30.9033 49.299V46.8206H20.3634V49.5709C19.3401 49.3789 18.3387 49.1247 17.3634 48.8122V46.8206V46.0826C13.4834 45.5307 10.5 42.1951 10.5 38.1627V34.3206V33.6948C9.01828 32.9585 8 31.4295 8 29.6626C8 27.8957 9.01828 26.3667 10.5 25.6304V23.5C10.5 15.4919 16.9919 9 25 9C33.0081 9 39.5 15.4919 39.5 23.5ZM31.4034 34.6627H28.3309V36.057C28.3309 36.9054 29.0187 37.5932 29.8671 37.5932C30.7156 37.5932 31.4034 36.9054 31.4034 36.057V34.6627ZM25.8309 36.057V34.6627H13V38.1627C13 41.2002 15.4624 43.6627 18.5 43.6627H31.5C34.5376 43.6627 37 41.2002 37 38.1627V34.6627H33.9034V36.057C33.9034 38.2861 32.0963 40.0932 29.8671 40.0932C27.638 40.0932 25.8309 38.2861 25.8309 36.057ZM33.5513 15.0813C31.3748 12.8706 28.3474 11.5 25 11.5C21.6526 11.5 18.6252 12.8706 16.4486 15.0813C18.6252 17.292 21.6525 18.6626 25 18.6626C28.3474 18.6626 31.3748 17.292 33.5513 15.0813ZM38.5 27.6626H12.5C11.3954 27.6626 10.5 28.558 10.5 29.6626C10.5 30.7672 11.3954 31.6626 12.5 31.6626H38.5C39.6046 31.6626 40.5 30.7672 40.5 29.6626C40.5 28.558 39.6046 27.6626 38.5 27.6626Z" fill="white"/>
<path d="M76.975 34.4C76.975 34.5833 76.4667 34.7333 75.45 34.85C74.4333 34.95 73.4083 35 72.375 35C71.3583 35 70.7083 34.9583 70.425 34.875C70.1417 34.775 70 34.6167 70 34.4V18.85C70 18.4833 70.4833 18.125 71.45 17.775C72.4167 17.4083 73.5 17.225 74.7 17.225C75.7667 17.225 76.4667 17.45 76.8 17.9C76.9167 18.0667 76.975 18.2333 76.975 18.4V34.4Z" fill="#D41443"/>
<path d="M91.5094 34.825C90.8427 34.975 90.1594 35.075 89.4594 35.125C88.776 35.1917 88.101 35.225 87.4344 35.225C86.7844 35.225 86.276 35.2083 85.9094 35.175C85.5594 35.1417 85.0927 35.0583 84.5094 34.925C83.926 34.7917 83.3927 34.6083 82.9094 34.375C82.426 34.1417 81.9094 33.8 81.3594 33.35C80.826 32.9 80.376 32.3667 80.0094 31.75C79.1594 30.3167 78.7344 28.4667 78.7344 26.2C78.7344 24.6833 78.9677 23.3417 79.4344 22.175C79.9177 21.0083 80.4927 20.1083 81.1594 19.475C81.8427 18.8417 82.6177 18.3333 83.4844 17.95C84.8844 17.3167 86.2927 17 87.7094 17C89.7427 17 91.201 17.1667 92.0844 17.5C92.4844 17.65 92.8427 17.8833 93.1594 18.2C93.476 18.5167 93.6344 18.975 93.6344 19.575C93.6344 20.175 93.4844 20.9333 93.1844 21.85C92.901 22.7667 92.4844 23.225 91.9344 23.225C91.7677 23.225 91.151 23.0917 90.0844 22.825C89.0177 22.5583 88.2927 22.425 87.9094 22.425C87.326 22.425 86.826 22.75 86.4094 23.4C86.0094 24.05 85.8094 24.975 85.8094 26.175C85.8094 27.375 85.9844 28.3083 86.3344 28.975C86.701 29.6417 87.176 29.975 87.7594 29.975C88.176 29.975 88.926 29.8083 90.0094 29.475C91.1094 29.125 91.751 28.95 91.9344 28.95C92.451 28.95 92.851 29.425 93.1344 30.375C93.4344 31.325 93.5844 32.0917 93.5844 32.675C93.5844 33.2583 93.401 33.725 93.0344 34.075C92.6844 34.4083 92.176 34.6583 91.5094 34.825Z" fill="#D41443"/>
<path d="M108.066 35H97.4656C96.649 35 96.099 34.9417 95.8156 34.825C95.5323 34.7083 95.3906 34.525 95.3906 34.275V18.45C95.3906 18.0167 95.5823 17.7083 95.9656 17.525C96.3656 17.3417 97.074 17.25 98.0906 17.25H108.141C108.491 17.25 108.666 17.8333 108.666 19C108.666 20.15 108.591 21.0333 108.441 21.65C108.291 22.25 108.091 22.55 107.841 22.55C106.757 22.55 104.932 22.4417 102.366 22.225V23.9C104.832 23.8 106.441 23.75 107.191 23.75C107.641 23.75 107.866 24.275 107.866 25.325C107.866 26.375 107.774 27.175 107.591 27.725C107.424 28.2583 107.191 28.525 106.891 28.525L102.366 28.425V30.025C105.266 29.8083 107.266 29.7 108.366 29.7C108.716 29.7 108.891 30.2833 108.891 31.45C108.891 32.6167 108.816 33.5 108.666 34.1C108.516 34.7 108.316 35 108.066 35Z" fill="#D41443"/>
<path d="M123.174 34.825C122.508 34.975 121.824 35.075 121.124 35.125C120.441 35.1917 119.766 35.225 119.099 35.225C118.449 35.225 117.941 35.2083 117.574 35.175C117.224 35.1417 116.758 35.0583 116.174 34.925C115.591 34.7917 115.058 34.6083 114.574 34.375C114.091 34.1417 113.574 33.8 113.024 33.35C112.491 32.9 112.041 32.3667 111.674 31.75C110.824 30.3167 110.399 28.4667 110.399 26.2C110.399 24.6833 110.633 23.3417 111.099 22.175C111.583 21.0083 112.158 20.1083 112.824 19.475C113.508 18.8417 114.283 18.3333 115.149 17.95C116.549 17.3167 117.958 17 119.374 17C121.408 17 122.866 17.1667 123.749 17.5C124.149 17.65 124.508 17.8833 124.824 18.2C125.141 18.5167 125.299 18.975 125.299 19.575C125.299 20.175 125.149 20.9333 124.849 21.85C124.566 22.7667 124.149 23.225 123.599 23.225C123.433 23.225 122.816 23.0917 121.749 22.825C120.683 22.5583 119.958 22.425 119.574 22.425C118.991 22.425 118.491 22.75 118.074 23.4C117.674 24.05 117.474 24.975 117.474 26.175C117.474 27.375 117.649 28.3083 117.999 28.975C118.366 29.6417 118.841 29.975 119.424 29.975C119.841 29.975 120.591 29.8083 121.674 29.475C122.774 29.125 123.416 28.95 123.599 28.95C124.116 28.95 124.516 29.425 124.799 30.375C125.099 31.325 125.249 32.0917 125.249 32.675C125.249 33.2583 125.066 33.725 124.699 34.075C124.349 34.4083 123.841 34.6583 123.174 34.825Z" fill="#D41443"/>
<path d="M134.056 34.275C134.056 34.4917 133.547 34.6667 132.531 34.8C131.514 34.9333 130.489 35 129.456 35C128.439 35 127.781 34.9417 127.481 34.825C127.197 34.7083 127.056 34.525 127.056 34.275V18.2C127.056 17.7667 127.597 17.4583 128.681 17.275C129.781 17.0917 131.164 17 132.831 17C134.497 17 135.572 17.0083 136.056 17.025C136.556 17.025 137.139 17.05 137.806 17.1C138.472 17.15 138.997 17.2333 139.381 17.35C139.781 17.4667 140.214 17.6167 140.681 17.8C141.164 17.9833 141.539 18.225 141.806 18.525C142.072 18.8083 142.331 19.15 142.581 19.55C143.031 20.2667 143.256 21.2917 143.256 22.625C143.256 23.9417 143.031 25.0583 142.581 25.975C142.147 26.875 141.564 27.5583 140.831 28.025C142.747 31.0417 143.706 32.9583 143.706 33.775C143.706 34.5917 142.064 35 138.781 35C137.831 35 137.172 34.9583 136.806 34.875C136.439 34.7917 136.206 34.6083 136.106 34.325L134.481 29.175L134.056 29.15V34.275ZM134.056 25.3H134.706C135.672 25.3 136.156 24.55 136.156 23.05C136.156 22.2833 136.022 21.7417 135.756 21.425C135.506 21.1083 135.214 20.95 134.881 20.95H134.056V25.3Z" fill="#D41443"/>
<path d="M157.626 35H147.026C146.21 35 145.66 34.9417 145.376 34.825C145.093 34.7083 144.951 34.525 144.951 34.275V18.45C144.951 18.0167 145.143 17.7083 145.526 17.525C145.926 17.3417 146.635 17.25 147.651 17.25H157.701C158.051 17.25 158.226 17.8333 158.226 19C158.226 20.15 158.151 21.0333 158.001 21.65C157.851 22.25 157.651 22.55 157.401 22.55C156.318 22.55 154.493 22.4417 151.926 22.225V23.9C154.393 23.8 156.001 23.75 156.751 23.75C157.201 23.75 157.426 24.275 157.426 25.325C157.426 26.375 157.335 27.175 157.151 27.725C156.985 28.2583 156.751 28.525 156.451 28.525L151.926 28.425V30.025C154.826 29.8083 156.826 29.7 157.926 29.7C158.276 29.7 158.451 30.2833 158.451 31.45C158.451 32.6167 158.376 33.5 158.226 34.1C158.076 34.7 157.876 35 157.626 35Z" fill="#D41443"/>
<path d="M167.11 33.725C167.077 34.2083 166.818 34.5417 166.335 34.725C165.868 34.9083 165.018 35 163.785 35C162.552 35 161.518 34.8917 160.685 34.675C159.868 34.4417 159.46 34.15 159.46 33.8C159.46 33.4 160.202 30.85 161.685 26.15C163.168 21.4333 164.018 18.7167 164.235 18C164.318 17.7833 164.985 17.6083 166.235 17.475C167.502 17.325 168.852 17.25 170.285 17.25C171.735 17.25 172.535 17.5 172.685 18C175.835 28.4667 177.41 33.7833 177.41 33.95C177.41 34.1167 177.31 34.2833 177.11 34.45C176.643 34.8167 175.718 35 174.335 35C171.385 35 169.877 34.65 169.81 33.95L169.635 32.325H167.235L167.11 33.725ZM169.11 27.575L168.735 23.075H168.185L167.76 27.575H169.11Z" fill="#D41443"/>
<path d="M182.517 35C182.1 35 181.492 35 180.692 35C179.909 35 179.375 34.9417 179.092 34.825C178.809 34.7083 178.667 34.525 178.667 34.275V18.5C178.667 18.1167 179.175 17.8167 180.192 17.6C181.225 17.3667 182.325 17.25 183.492 17.25C184.659 17.25 185.492 17.4 185.992 17.7C186.492 18 186.784 18.3167 186.867 18.65L188.567 25.25H188.792L190.392 18.95C190.509 18.5 191.05 18.1083 192.017 17.775C193 17.425 194.075 17.25 195.242 17.25C196.409 17.25 197.267 17.3417 197.817 17.525C198.384 17.7083 198.667 17.9417 198.667 18.225V34.275C198.667 34.4917 198.192 34.6667 197.242 34.8C196.292 34.9333 195.134 35 193.767 35C192.4 35 191.717 34.7583 191.717 34.275C191.717 32.9583 191.859 30.6167 192.142 27.25H191.917L190.617 33.775C190.567 34.025 190.359 34.2083 189.992 34.325C189.642 34.4417 189.109 34.5 188.392 34.5C187.675 34.5 187.234 34.45 187.067 34.35C186.917 34.25 186.817 34.0583 186.767 33.775L185.417 27.25H185.192C185.492 30.6833 185.642 33.025 185.642 34.275C185.642 34.7083 184.6 34.95 182.517 35Z" fill="#D41443"/>
</svg>
